<?xml version="1.0" encoding="utf-8"?>
<!-- Generator: Adobe Illustrator 21.0.0, SVG Export Plug-In . SVG Version: 6.00 Build 0)  -->
<svg version="1.1" id="Layer_1" xmlns="http://www.w3.org/2000/svg" xmlns:xlink="http://www.w3.org/1999/xlink" x="0px" y="0px"
	 viewBox="0 0 841.9 595.3" style="enable-background:new 0 0 841.9 595.3;" xml:space="preserve">
<style type="text/css">
	.st0{display:none;fill:none;stroke:#788B9B;stroke-width:6;stroke-miterlimit:10;}
	.st1{display:none;}
	.st2{display:inline;fill:none;stroke:#BA0C0C;stroke-width:6;stroke-miterlimit:10;}
	.st3{display:none;fill:#FEFEFE;}
	.st4{display:inline;fill:none;stroke:#788B9B;stroke-width:6;stroke-miterlimit:10;}
	.st5{display:inline;fill:#FFFFFF;}
	.st6{fill:#FFFFFF;}
	.st7{fill:none;stroke:#788B9B;stroke-width:6;stroke-miterlimit:10;}
	.st8{fill:#C4D3DD;}
	.st9{fill:#5E9B76;}
	.st10{display:none;fill:#6FA683;}
	.st11{fill:#788B9B;}
	.st12{display:none;fill:#B9DFBC;}
	.st13{fill:#C1CDD5;}
	.st14{fill:#FEFEFE;}
	.st15{fill:none;stroke:#E52E2E;stroke-width:9;stroke-miterlimit:10;}
	.st16{display:none;fill:none;stroke:#E52E2E;stroke-width:9;stroke-miterlimit:10;}
</style>
<g>
	<path class="st0" d="M294.2,433.1c3.8,1.1,4.8-3.9,6.8-5.9c7-14,17-25,23.3-38.5c0.2,0.6-1.2,1.4,0,0c0.2,0.6,2.5,6.3,0.5,5.6
		c-1.7-0.7-1.2-4.5-0.5-5.6c4.9,12,9.5,24.1,13.8,36.2"/>
	<g class="st1">
		<path class="st2" d="M355.7,466.6l13,19.5L355.7,466.6z"/>
		<path class="st2" d="M368,466.4l-13,19.5L368,466.4z"/>
	</g>
	<path class="st0" d="M338.1,425c1.9,4.3,1.9,10.3,6.9,12.3c16,5,32,9,48,12c-1.5,0.5-3.7-0.2-5-0.9c1.6-0.1,3.4,0.5,5,0.9
		c-1.6,1.4-3.6,4-5.9,3.9c1-2.1,3.5-3.9,5.9-3.9c-10,8-20,16-30,25c-4,3-10,6-9.2,11.4"/>
	<path class="st3" d="M517.6,506c-92.5,0-185,0-277.4,0.1c-2.4,0-3.2-0.3-3.1-3c0.1-123.3,0.1-246.7,0-370c0-2.4,0.6-2.8,2.9-2.8
		c123.3,0.1,246.7,0.1,370,0c2.2,0,3,0.3,3,2.8c-0.1,123.5-0.1,246.9,0,370.4c0,2.3-0.5,2.7-2.7,2.7c-24.1-0.1-48.2-0.1-72.4-0.1
		c0.8-2.6,3.2-2,4.9-2.3c12.5-2.4,24-7.1,34.1-14.6c19.6-14.5,30.9-34,33.5-58.2c3-27.2-5.8-50.4-25-69.7
		c-7.6-7.6-16.7-13-26.6-17.1c-1.6-0.7-3.4-1.1-3.8-3.2c-0.5-4.8-0.2-9.5-0.2-14.3c-0.2-28.5-0.1-57,0-85.5c0-6.2-2.4-10.2-8.8-14.7
		c-26-18.1-48.6-40.4-66.6-66.5c-4.5-6.5-8.2-9.3-14.4-9.2c-54.6,0.1-109.2,0.1-163.8,0.1c-1.1,0-2.3,0-3.4,0
		c-2.2,0-3.1,1.1-3.1,3.2c0,1.2,0,2.5,0,3.7c0,107,0,214,0,320.9c0,7.2,0,7.2,7.1,7.2c48.7,0,97.5,0,146.2,0c2.2,0,4.5,0.1,6.7,0
		c6.2,0,12.4-0.2,18.6,0.2c1.7,0.2,3,1.1,4.3,2.1c10.7,7.8,22.6,12.9,35.6,15.4C514.6,504,516.9,503.6,517.6,506z"/>
	<g class="st1">
		<rect x="328.6" y="256.5" class="st4" width="142.8" height="115"/>
		<polygon class="st5" points="319,258.5 335.3,259.9 336.8,367 319,370.7 		"/>
		<polygon class="st6" points="400,243.6 439,239.8 435.5,389.3 402.5,397.4 		"/>
		<line class="st7" x1="423.8" y1="256.5" x2="423.8" y2="371.4"/>
		<line class="st7" x1="376.2" y1="256.5" x2="376.2" y2="371.4"/>
		<line class="st4" x1="328.6" y1="333.1" x2="471.5" y2="333.1"/>
		<line class="st7" x1="328.6" y1="294.8" x2="471.5" y2="294.8"/>
	</g>
	<path class="st8" d="M546.8,367.1c3.1-0.2,5.9,1,8.9,1.5c0,5,0,10.1,0.1,15.1c-3-0.8-6-1.6-9-2.4
		C545.1,376.5,545,371.8,546.8,367.1z"/>
	<path class="st9" d="M539.6,371.4c7.8,3.2,15.2,7,21.5,12.7c17,15.4,24.9,34.6,22.3,57.4c-3.5,31.3-25.2,53.6-56.3,58.8
		c-0.6,0.1-1.4-0.2-1.8,0.7c-1.4,0-2.8,0-4.1,0c-1-0.5-2-0.5-3,0c-0.6,0-1.2,0-1.8,0c-1.2-0.5-2.4-0.5-3.6,0c-1.2,0-2.4,0-3.6,0
		c-1.8-1.1-3.9-1-5.8-1.4c-10.5-2.2-19.9-6.9-28.4-13.4c-3.9-1.7-6.5-5.1-9.1-8.2c-8.2-9.4-13.1-20.4-15-32.6
		c-3.1-19.1,1.3-36.5,12.9-51.9c11.4-15.1,26.9-23.6,45.8-25.9c7-0.9,13.9-0.6,20.8,0.9c0.7,0.2,1.5,0.4,2.3,0.4
		C535.1,369.5,537.7,369.6,539.6,371.4z"/>
	<path class="st10" d="M522,506c1.5-1.2,3-1.1,4.5,0C525,506,523.5,506,522,506z"/>
	<path class="st10" d="M528.7,506c1.3-1.1,2.5-1.1,3.8,0C531.2,506,530,506,528.7,506z"/>
	<path class="st11" d="M293.2,397.4c0-81.1,0-162.2,0-243.4c0-3.3,0.6-4.4,4.2-4.4c56.9,0.1,113.7,0.1,170.6,0
		c2.6,0,4.4,0.8,6.2,2.6c26.4,26.5,52.8,52.9,79.2,79.3c1.3,1.3,2.5,2.5,2.5,4.7c-0.1,30.1-0.1,60.2-0.1,90.3
		c-3.5,0.9-6.6,0.1-9.5-1.8c-0.7-1.8-0.5-3.7-0.5-5.5c0-23.1,0-46.1,0-69.2c0-1.7,0.5-3.6-1.2-4.8c-1.8-0.8-3.7-0.5-5.6-0.5
		c-23,0-46,0-69,0c-1.1,0-2.2,0-3.4,0c-4.8-0.2-5.7-1-5.7-5.8c-0.1-16.6,0-33.2,0-49.9c0-7.7,0-15.5,0-23.2c0-4.8-0.3-5.1-5.1-5.1
		c-22.1,0-44.2,0-66.3,0c-26.4,0-52.7,0-79.1,0c-5.9,0-6,0.1-6,6.1c0,101.5,0,202.9,0,304.4c0,1.6-0.2,3.3,0.6,4.8
		c1.4,1.8,3.4,1.2,5.3,1.2c44.2,0,88.4,0,132.6,0c5.2,0,10.6,4.6,11.7,9.9c-1.4,0.1-2.7,0.2-4.1,0.2c-50.9,0-101.7,0-152.6,0.1
		c-3.7,0-4.4-1-4.4-4.5c0-21.2,0-42.3,0-63.5"/>
	<path class="st11" d="M293.2,419.3c0-7.3,0-14.6,0-21.9"/>
	<path class="st8" d="M454.3,487.1c-2-2.7-4.9-4.7-6.4-7.7c-0.9-1.8-2.6-1.1-4-1.1c-22.7,0-45.4,0-68.1,0c-22.8,0-45.7,0-68.5,0
		c-1.4,0-3,0.6-4.3-0.7c1.3-1.2,3-1.2,4.6-1.2c50.7,0,101.5,0,152.2,0c1.3,0,2.5,0.3,3.7,0.5c3.2,3.8,7,7,10.6,10.4
		C467.5,487.1,460.9,487.1,454.3,487.1z"/>
	<path class="st3" d="M463.5,476.7c-1.4,1.3-3.1,0.7-4.6,0.7c-52,0-103.9,0.1-155.9,0.1c-0.1-1.5-0.2-3-0.2-4.5
		c0-102.9,0-205.7,0-308.6c0-5.8-0.6-5.2,5.2-5.2c49.9,0,99.7,0,149.6-0.1c3.7,0,4.5,1.1,4.5,4.6c-0.2,25.4,0,50.7-0.2,76.1
		c0,3,0.9,3.7,3.8,3.7c26.7-0.1,53.5,0,80.2,0c0.8,1,0.4,2.2,0.4,3.3c0,29.6,0,59.2,0,88.7c0,1.2,1.1,3.5-1.9,3.2
		c-17.8-3.2-35-1.6-51.6,5.9c-33.6,15.1-53.1,49.7-49,86.4C445.7,448.3,452.4,463.4,463.5,476.7z"/>
	<path class="st12" d="M452.9,421.5c-0.9-40.5,34.2-75,75-74.9c40.5,0.1,74.7,34.5,74.7,75.1c0,40.6-34.4,75-75.2,74.9
		C487,496.4,451.9,462.3,452.9,421.5z"/>
	<path class="st13" d="M544.4,338.8c1.8-0.3,1.5-1.6,1.5-2.9c0-30.8-0.1-61.6-0.1-92.3c1.5,1.1,0.8,2.8,0.8,4.1
		c0.1,25.8,0.1,51.6,0.1,77.4c0,4.7,0,9.4,0,14.2C545.9,339.5,545.1,339.5,544.4,338.8z"/>
	<path class="st14" d="M471.7,164.4c23.2,23.2,46.4,46.4,69.9,69.9c-0.2,0.5-1.2,0-2,0c-21.6,0-43.2,0-64.8,0.1
		c-2.3,0-3.3-0.5-3.3-3.1c0.1-22,0.1-43.9,0.1-65.9C471.5,164.8,471.7,164.4,471.7,164.4z"/>
	<path class="st14" d="M539.4,441.8c-3.9,0-7.9,0.1-11.8,0c-2.2-0.1-2.9,0.5-2.9,2.8c0.1,8,0,16,0.1,23.9c0,2.4-0.7,3.1-3,2.9
		c-2.9-0.2-5.9-0.2-8.9,0c-2.3,0.1-3.1-0.5-3-2.9c0.2-7.9,0-15.8,0.1-23.7c0.1-2.5-0.8-3.1-3.2-3.1c-8,0.1-16,0-23.9,0.1
		c-1.9,0-2.6-0.5-2.6-2.5c0.1-3.2,0.2-6.5,0-9.8c-0.1-2.1,0.7-2.7,2.7-2.6c8,0.1,16,0,24,0.1c2.3,0,3.1-0.5,3-2.9
		c-0.2-8,0-16-0.1-23.9c0-2.3,0.7-2.9,2.9-2.8c3,0.2,6.1,0.2,9.2,0c2.2-0.1,2.9,0.5,2.9,2.8c-0.1,8,0,16-0.1,23.9c0,2.4,0.7,3,3,2.9
		c8-0.1,16,0,24-0.1c2,0,2.8,0.5,2.7,2.6c-0.2,3.2-0.1,6.5,0,9.8c0.1,2-0.7,2.5-2.6,2.5C547.7,441.7,543.6,441.8,539.4,441.8z"/>
	<rect x="545.5" y="312.3" class="st11" width="10.2" height="57.3"/>
	<path class="st0" d="M314.5,392.3c0-26,18.3-47,41-47"/>
	<path class="st0" d="M405.5,383.7c0-21.2-22.4-38.4-50-38.4"/>
	<g class="st1">
		<path class="st2" d="M462.1,362.1l19.8,19.8L462.1,362.1z"/>
		<path class="st2" d="M480.9,361.9l-19.8,19.8L480.9,361.9z"/>
	</g>
	<g class="st1">
		<path class="st2" d="M462.6,323.8l19.8,19.8L462.6,323.8z"/>
		<path class="st2" d="M481.4,323.7l-19.8,19.8L481.4,323.7z"/>
	</g>
	<g class="st1">
		<path class="st2" d="M462.1,285.4l19.8,19.8L462.1,285.4z"/>
		<path class="st2" d="M480.9,285.3l-19.8,19.8L480.9,285.3z"/>
	</g>
	<g class="st1">
		<path class="st2" d="M462,248.9l19.8,19.8L462,248.9z"/>
		<path class="st2" d="M480.9,248.8l-19.8,19.8L480.9,248.8z"/>
	</g>
	<g class="st1">
		<path class="st2" d="M414.4,248.7l19.8,19.8L414.4,248.7z"/>
		<path class="st2" d="M433.3,248.6l-19.8,19.8L433.3,248.6z"/>
	</g>
	<g class="st1">
		<path class="st2" d="M366.8,248.8l19.8,19.8L366.8,248.8z"/>
		<path class="st2" d="M385.7,248.7l-19.8,19.8L385.7,248.7z"/>
	</g>
	<g class="st1">
		<path class="st2" d="M323.5,250.6l16.1,16.1L323.5,250.6z"/>
		<path class="st2" d="M338.9,250.5l-16.1,16.1L338.9,250.5z"/>
	</g>
	<g class="st1">
		<path class="st2" d="M323.7,289.1l12.7,17.2L323.7,289.1z"/>
		<path class="st2" d="M335.9,289l-12.7,17.2L335.9,289z"/>
	</g>
	<g class="st1">
		<path class="st2" d="M322.5,323.9l13,19.5L322.5,323.9z"/>
		<path class="st2" d="M334.8,323.8l-13,19.5L334.8,323.8z"/>
	</g>
	<g class="st1">
		<path class="st2" d="M324.7,359.9l13,19.5L324.7,359.9z"/>
		<path class="st2" d="M337,359.8l-13,19.5L337,359.8z"/>
	</g>
</g>
<g class="st1">
	<path class="st2" d="M417.8,360.8l19.8,19.8L417.8,360.8z"/>
	<path class="st2" d="M436.7,360.7l-19.8,19.8L436.7,360.7z"/>
</g>
<g class="st1">
	<path class="st2" d="M367.8,361.8l19.8,19.8L367.8,361.8z"/>
	<path class="st2" d="M386.7,361.7l-19.8,19.8L386.7,361.7z"/>
</g>
<g class="st1">
	<path class="st2" d="M319.8,360.8l19.8,19.8L319.8,360.8z"/>
	<path class="st2" d="M338.7,360.7l-19.8,19.8L338.7,360.7z"/>
</g>
<g class="st1">
	<path class="st2" d="M321.2,248.9l19.8,19.8L321.2,248.9z"/>
	<path class="st2" d="M340.1,248.8l-19.8,19.8L340.1,248.8z"/>
</g>
<g class="st1">
	<path class="st2" d="M323.8,323.8l19.8,19.8L323.8,323.8z"/>
	<path class="st2" d="M342.7,323.7l-19.8,19.8L342.7,323.7z"/>
</g>
<g class="st1">
	<path class="st2" d="M414.8,322.8l19.8,19.8L414.8,322.8z"/>
	<path class="st2" d="M433.7,322.7l-19.8,19.8L433.7,322.7z"/>
</g>
<g class="st1">
	<path class="st2" d="M414.8,286.8l19.8,19.8L414.8,286.8z"/>
	<path class="st2" d="M433.7,286.7l-19.8,19.8L433.7,286.7z"/>
</g>
<g class="st1">
	<path class="st2" d="M318.8,286.8l19.8,19.8L318.8,286.8z"/>
	<path class="st2" d="M337.7,286.7l-19.8,19.8L337.7,286.7z"/>
</g>
<g class="st1">
	<path class="st2" d="M367.8,285.8l19.8,19.8L367.8,285.8z"/>
	<path class="st2" d="M386.7,285.7l-19.8,19.8L386.7,285.7z"/>
</g>
<path class="st6" d="M529.3,340.6"/>
<circle class="st15" cx="340.3" cy="243.6" r="16.8"/>
<circle class="st16" cx="333" cy="293.3" r="25"/>
<circle class="st15" cx="441.5" cy="276.3" r="17"/>
<circle class="st16" cx="513" cy="323.3" r="25"/>
<circle class="st15" cx="403.3" cy="352.5" r="14.7"/>
<circle class="st16" cx="393" cy="353.3" r="25"/>
<circle class="st16" cx="413" cy="443.3" r="25"/>
<circle class="st15" cx="498.3" cy="275.5" r="14.7"/>
<line class="st15" x1="346.1" y1="259.3" x2="388.5" y2="340.9"/>
<line class="st15" x1="410" y1="339.4" x2="428.2" y2="286.9"/>
<line class="st15" x1="458.5" y1="276.3" x2="484.4" y2="276.3"/>
</svg>
